<svg xmlns="http://www.w3.org/2000/svg" width="322" height="386.781" viewBox="0 0 322 386.781">
  <g id="Group_1" data-name="Group 1" transform="translate(-1441 -454.219)">
    <g id="Path_1" data-name="Path 1" transform="translate(1441 493)">
      <path id="Path_1-2" data-name="Path 1" d="M16.771,6.92a92.959,92.959,0,0,1-9.67-.46C4.456,6.164,3,5.77,3,5.351V-29.861c0-.419,1.456-.814,4.1-1.11a93.773,93.773,0,0,1,9.9-.46h.24l.237,0,240.17-4.344a92.963,92.963,0,0,1,9.671.46c2.644.3,4.1.691,4.1,1.11V1c0,.419-1.456.814-4.1,1.11a93.75,93.75,0,0,1-9.9.46h-.24l-.237,0Z" fill="none"/>
      <path id="Path_2" data-name="Path 2" d="M257.848-32.74,17,6.246c-1.127,0,19.814-17.267,33.611-2.77,3.519,3.7,7.094-.113,11.555,0,8.408.218,18.768.283,30.044,0,35.314-.886,80.156-4.977,114.628,0,15.734,2.272,19.875-.462,38.826,0,13.628.5-.924-2.311,18.026,0-.336-2.135,4.49-2.142,4.729-3.125.558-2.659,0,2.382,0-22.039A11.046,11.046,0,0,0,257.848-32.74m-.429-6.041a17.047,17.047,0,0,1,17,17.093V5.082s-5.212-1.107-8.809-1.605c-10.147-1.388-30.532.277-58.772,0-48.994-.462-97.442,0-156.227,0C8.55,3.476,14.8.213,17,.213Z" transform="translate(0)" fill="#fff"/>
    </g>
    <g id="Rectangle_1" data-name="Rectangle 1" transform="translate(1441 493)" fill="none" stroke="#fff" stroke-width="6">
      <rect width="322" height="348" rx="17" stroke="none"/>
      <rect x="3" y="3" width="316" height="342" rx="14" fill="none"/>
    </g>
    <path id="Icon_ionic-ios-star" data-name="Icon ionic-ios-star" d="M43.479,17.15H29.407L25.131,4.389a1.549,1.549,0,0,0-2.908,0L17.948,17.15H3.781A1.535,1.535,0,0,0,2.25,18.68a1.125,1.125,0,0,0,.029.258A1.471,1.471,0,0,0,2.92,20.02l11.565,8.15-4.439,12.9a1.535,1.535,0,0,0,.526,1.722,1.48,1.48,0,0,0,.861.373,1.875,1.875,0,0,0,.957-.344L23.677,34.78l11.288,8.045a1.792,1.792,0,0,0,.957.344,1.374,1.374,0,0,0,.851-.373,1.516,1.516,0,0,0,.526-1.722l-4.439-12.9,11.47-8.231.277-.239a1.6,1.6,0,0,0,.5-1.024,1.62,1.62,0,0,0-1.628-1.53Z" transform="translate(1578.323 540.625)" fill="#fff"/>
    <path id="Icon_ionic-ios-star-2" data-name="Icon ionic-ios-star" d="M17.859,8.59H12.532L10.913,3.759a.587.587,0,0,0-1.1,0L8.193,8.59H2.829a.581.581,0,0,0-.579.579.426.426,0,0,0,.011.1.557.557,0,0,0,.243.409l4.379,3.086L5.2,17.648a.581.581,0,0,0,.2.652.56.56,0,0,0,.326.141.71.71,0,0,0,.362-.13l4.273-3.046,4.273,3.046a.679.679,0,0,0,.362.13.52.52,0,0,0,.322-.141.574.574,0,0,0,.2-.652l-1.68-4.886L18.18,9.647l.1-.091a.554.554,0,0,0-.427-.967Z" transform="translate(1638.323 552.989)" fill="#fff"/>
    <path id="Icon_ionic-ios-star-3" data-name="Icon ionic-ios-star" d="M17.859,8.59H12.532L10.913,3.759a.587.587,0,0,0-1.1,0L8.193,8.59H2.829a.581.581,0,0,0-.579.579.426.426,0,0,0,.011.1.557.557,0,0,0,.243.409l4.379,3.086L5.2,17.648a.581.581,0,0,0,.2.652.56.56,0,0,0,.326.141.71.71,0,0,0,.362-.13l4.273-3.046,4.273,3.046a.679.679,0,0,0,.362.13.52.52,0,0,0,.322-.141.574.574,0,0,0,.2-.652l-1.68-4.886L18.18,9.647l.1-.091a.554.554,0,0,0-.427-.967Z" transform="translate(1544.953 552.989)" fill="#fff"/>
    <path id="Path_2-2" data-name="Path 2" d="M753.82,697.2h246.207" transform="translate(725.076)" fill="rgba(0,0,0,0)" stroke="#fff" stroke-width="4"/>
    <text id="MENU" transform="translate(1474 667)" fill="#fff" font-size="87" font-family="Arial-BoldMT, Arial" font-weight="700"><tspan x="0" y="0">MENU</tspan></text>
    <text id="digital" transform="translate(1485 799)" fill="#fff" font-size="90" font-family="ArialMT, Arial"><tspan x="0" y="0">digital</tspan></text>
  </g>
</svg>
