<svg width="20" height="20" viewBox="0 0 20 20" fill="none" xmlns="http://www.w3.org/2000/svg">
<path d="M17.7373 6.89625L12.7783 6.17554L10.5615 1.6814C10.501 1.55836 10.4014 1.45875 10.2783 1.3982C9.96973 1.24586 9.59473 1.37281 9.44044 1.6814L7.22364 6.17554L2.26465 6.89625C2.12794 6.91578 2.00294 6.98023 1.90723 7.07789C1.79153 7.19681 1.72778 7.35679 1.72997 7.5227C1.73217 7.6886 1.80014 7.84684 1.91895 7.96265L5.50684 11.4607L4.65919 16.4002C4.63931 16.5151 4.65202 16.6332 4.69589 16.7413C4.73975 16.8493 4.81302 16.9429 4.90737 17.0114C5.00172 17.08 5.11338 17.1207 5.22969 17.129C5.34601 17.1373 5.46232 17.1128 5.56544 17.0584L10.001 14.7263L14.4365 17.0584C14.5576 17.1228 14.6982 17.1443 14.833 17.1209C15.1729 17.0623 15.4014 16.74 15.3428 16.4002L14.4951 11.4607L18.083 7.96265C18.1807 7.86695 18.2451 7.74195 18.2647 7.60523C18.3174 7.26343 18.0791 6.94703 17.7373 6.89625Z" fill="#FFB906"/>
</svg>
