<svg width="144" height="60" viewBox="0 0 144 60" fill="none" xmlns="http://www.w3.org/2000/svg">
<path d="M35.9978 14.9055C35.9974 14.8851 35.9978 14.8651 35.9978 14.8447C35.9978 14.3554 35.4852 14.0571 35.0868 14.2937C34.0943 14.8834 33.1014 15.4736 32.1088 16.0633C30.5266 17.0036 28.9443 17.9436 27.3625 18.8839C27.1017 19.0388 26.8414 19.1937 26.5807 19.3485C25.7032 18.8196 24.8253 18.2912 23.9478 17.7623C22.3873 16.8224 20.8265 15.882 19.266 14.9421C18.9072 14.726 18.5484 14.5098 18.1895 14.2937C17.7948 14.0558 17.2737 14.3558 17.2785 14.8447C17.2822 15.2315 17.2858 15.6182 17.2894 16.005C17.2983 16.9283 17.3072 17.8516 17.3161 18.7754C17.327 19.8978 17.3375 21.0203 17.3483 22.1427C17.3576 23.1095 17.3669 24.0758 17.3762 25.0425C17.3786 25.3097 17.3778 25.5778 17.3794 25.8454C17.2793 25.8454 17.1796 25.8454 17.0795 25.8454C16.3098 25.8454 15.5405 25.8454 14.7707 25.8454C13.7568 25.8454 12.7429 25.8454 11.729 25.8454C10.6856 25.8454 9.64218 25.8454 8.59878 25.8454C7.7568 25.8454 6.91483 25.8454 6.07285 25.8454C5.64661 25.8454 5.22077 25.845 4.79454 25.8454C3.53682 25.8462 2.32026 26.3492 1.41935 27.2806C0.509564 28.2214 0.00260119 29.5293 0.000179393 30.8696C-0.000224241 31.1015 0.000179393 31.3334 0.000179393 31.5649C0.000179393 32.084 0.000179393 32.6027 0.000179393 33.1218C0.000179393 33.8719 0.000179393 34.622 0.000179393 35.3722C0.000179393 36.3027 0.000179393 37.2333 0.000179393 38.1639C0.000179393 39.2097 0.000179393 40.2556 0.000179393 41.3015C0.000179393 42.4111 0.000179393 43.5204 0.000179393 44.6301C0.000179393 45.7474 0.000179393 46.8648 0.000179393 47.9826C0.000179393 49.0522 0.000179393 50.1215 0.000179393 51.1912C0.000179393 52.1571 0.000179393 53.1229 0.000179393 54.0888C0.000179393 54.8951 0.000179393 55.7014 0.000179393 56.5082C0.000179393 57.0992 0.000179393 57.6906 0.000179393 58.2816C0.000179393 58.6025 0.000179393 58.9237 0.000179393 59.2445C0.000179393 59.2849 0.000179393 59.3249 0.000179393 59.3654C0.000179393 59.8526 0.513601 60.1559 0.911181 59.9164C1.88999 59.3266 2.8688 58.7373 3.84761 58.1476C5.40806 57.2077 6.96891 56.2673 8.52936 55.3274C8.78647 55.1725 9.04318 55.0177 9.3003 54.8628C10.1774 55.3913 11.0541 55.9193 11.9312 56.4478C13.492 57.3877 15.0525 58.328 16.6129 59.2679C16.9718 59.4841 17.3306 59.7002 17.6894 59.9164C18.087 60.1559 18.6004 59.8526 18.6004 59.3654C18.6004 59.0301 18.6004 58.6948 18.6004 58.3595C18.6004 57.4668 18.6004 56.5741 18.6004 55.6814C18.6004 54.4016 18.6004 53.1212 18.6004 51.8414C18.6004 50.6823 18.6004 49.5233 18.6004 48.3642C18.8914 48.3642 19.1821 48.3642 19.4731 48.3642C19.9231 48.3642 20.3732 48.3642 20.8228 48.3642C21.3718 48.3642 21.9207 48.3642 22.4697 48.3642C23.069 48.3642 23.668 48.3642 24.2674 48.3642C24.8765 48.3642 25.4852 48.3642 26.0943 48.3642C26.6582 48.3642 27.222 48.3642 27.7859 48.3642C28.2642 48.3642 28.7425 48.3642 29.2208 48.3642C29.5647 48.3642 29.9086 48.3642 30.2525 48.3642C30.4152 48.3642 30.5774 48.3655 30.7401 48.3642C30.7474 48.3642 30.7542 48.3642 30.7615 48.3642C30.8422 48.3642 30.9225 48.3642 31.0033 48.3642C31.0146 48.3642 31.0259 48.3642 31.0376 48.3642C32.0527 48.3642 33.0408 48.1306 33.8897 47.5196C34.8039 46.8618 35.4897 45.8981 35.8057 44.776C35.9954 44.1012 35.9982 43.4234 35.9982 42.732C35.9982 41.9614 35.9982 41.1908 35.9982 40.4207C35.9982 39.2297 35.9982 38.0388 35.9982 36.8478C35.9982 35.3965 35.9982 33.9447 35.9982 32.4933C35.9982 30.9254 35.9982 29.3574 35.9982 27.7895C35.9982 26.2696 35.9982 24.7497 35.9982 23.2299C35.9982 21.9015 35.9982 20.5735 35.9982 19.2451C35.9982 18.2686 35.9982 17.2921 35.9982 16.3156C35.9978 15.8454 36.0027 15.3753 35.9978 14.9055ZM15.3379 57.0294C13.7734 56.0869 12.2093 55.1449 10.6448 54.2024C10.3017 53.9961 9.96307 53.7761 9.61392 53.5816C9.33743 53.4276 9.10535 53.5089 8.87003 53.6506C8.69324 53.7569 8.51645 53.8637 8.33965 53.9701C6.84823 54.8683 5.3568 55.767 3.86538 56.6652C2.98021 57.1983 2.09504 57.7315 1.20987 58.2646C1.20987 58.0034 1.20987 57.7421 1.20987 57.4809C1.20987 56.7784 1.20987 56.0763 1.20987 55.3738C1.20987 54.4858 1.20987 53.5978 1.20987 52.7098C1.20987 51.6912 1.20987 50.6725 1.20987 49.6539C1.20987 48.5595 1.20987 47.4652 1.20987 46.3708C1.20987 45.2556 1.20987 44.1403 1.20987 43.0251C1.20987 41.9444 1.20987 40.8632 1.20987 39.7824C1.20987 38.7906 1.20987 37.7988 1.20987 36.8074C1.20987 35.9598 1.20987 35.1122 1.20987 34.2646C1.20987 33.6162 1.20987 32.9677 1.20987 32.3193C1.20987 31.9261 1.20987 31.533 1.20987 31.1398C1.20987 31.0543 1.20987 30.9688 1.20987 30.8832C1.20987 30.8717 1.20987 30.8598 1.20987 30.8484C1.21068 30.6709 1.24458 30.4888 1.24216 30.3131C1.24297 30.3063 1.24418 30.2995 1.24539 30.2927C1.25225 30.2484 1.25992 30.2046 1.2684 30.1607C1.28616 30.0663 1.30715 29.9727 1.33096 29.8795C1.35437 29.7872 1.38101 29.6961 1.41007 29.6055C1.42339 29.5642 1.43752 29.5229 1.45205 29.4817C1.4581 29.4651 1.48434 29.3983 1.49241 29.3766C1.50049 29.3578 1.50815 29.3395 1.51138 29.3327C1.52874 29.2932 1.5469 29.254 1.56506 29.2153C1.60502 29.1315 1.64741 29.0489 1.69261 28.9681C1.73742 28.8872 1.78464 28.8081 1.83429 28.7307C1.8573 28.6949 1.88071 28.6596 1.90452 28.6247C1.91663 28.6073 1.92874 28.5898 1.94045 28.5724C1.98283 28.5103 1.94166 28.5575 1.9247 28.589C1.95336 28.5239 2.03369 28.4528 2.07728 28.4013C2.13581 28.3316 2.19675 28.2643 2.25932 28.1988C2.32188 28.1333 2.38686 28.0699 2.45346 28.0086C2.48414 27.9805 2.51522 27.9524 2.5467 27.9252C2.5568 27.9167 2.56689 27.9082 2.57698 27.8997C2.71502 27.7993 2.84983 27.6976 2.99595 27.6095C3.07345 27.5627 3.15215 27.5189 3.23207 27.4776C3.26921 27.4584 3.30675 27.4406 3.34388 27.4219C3.34792 27.4197 3.35236 27.4172 3.3576 27.4142C3.36124 27.4129 3.36568 27.4112 3.37052 27.4091C3.53319 27.3436 3.69706 27.284 3.86578 27.238C3.95417 27.2138 4.04378 27.1929 4.13339 27.1751C4.17213 27.1674 4.21048 27.161 4.24923 27.1538C4.26416 27.1517 4.28233 27.1487 4.28919 27.1483C4.44055 27.1308 4.59272 27.1227 4.74489 27.1223C4.76871 27.1223 4.79252 27.1223 4.81634 27.1223C4.97658 27.1223 5.13682 27.1223 5.29706 27.1223C5.97355 27.1223 6.64964 27.1223 7.32613 27.1223C8.29646 27.1223 9.2668 27.1223 10.2375 27.1223C11.2854 27.1223 12.3332 27.1223 13.3814 27.1223C14.2904 27.1223 15.199 27.1223 16.108 27.1223C16.6614 27.1223 17.2143 27.1223 17.7677 27.1223C17.8432 27.1223 17.9191 27.1223 17.9946 27.1223C18.1262 27.1223 18.2581 27.1223 18.3897 27.1223C18.5504 27.1223 18.711 27.1223 18.8717 27.1223C18.106 27.8542 17.5865 28.8847 17.444 29.9625C17.352 30.6594 17.3887 31.3747 17.3887 32.0763C17.3887 32.3197 17.3887 32.5635 17.3887 32.8069C17.3887 33.303 17.3887 33.7992 17.3887 34.2953C17.3887 35.3122 17.3887 36.3291 17.3887 37.3461C17.3887 38.7153 17.3887 40.085 17.3887 41.4542C17.3887 42.9924 17.3887 44.5305 17.3887 46.0687C17.3887 47.6064 17.3887 49.1437 17.3887 50.6815C17.3887 52.0447 17.3887 53.408 17.3887 54.7713C17.3887 55.787 17.3887 56.8022 17.3887 57.8178C17.3887 57.9663 17.3879 58.1153 17.3875 58.2642C16.7046 57.8527 16.0212 57.4409 15.3379 57.0294ZM24.7183 47.0873C24.1092 47.0873 23.5005 47.0873 22.8915 47.0873C22.3276 47.0873 21.7637 47.0873 21.1998 47.0873C20.7215 47.0873 20.2432 47.0873 19.7649 47.0873C19.421 47.0873 19.0771 47.0873 18.7332 47.0873C18.6888 47.0873 18.6444 47.0873 18.5996 47.0869C18.5996 45.6296 18.5996 44.1723 18.5996 42.7149C18.5996 41.2929 18.5996 39.8714 18.5996 38.4494C18.5996 37.3201 18.5996 36.1913 18.5996 35.062C18.5996 34.397 18.5996 33.7319 18.5996 33.0669C18.5996 32.4571 18.5996 31.8474 18.5996 31.2372C18.5996 31.0049 18.5948 30.7722 18.6016 30.5403C18.6037 30.4795 18.6065 30.4182 18.6109 30.3573C18.6137 30.3195 18.617 30.282 18.6206 30.2442C18.621 30.2407 18.6214 30.2361 18.6218 30.2305C18.6182 30.302 18.623 30.2139 18.6267 30.1901C18.6323 30.1531 18.638 30.1165 18.6444 30.0795C18.6573 30.0063 18.6719 29.934 18.6884 29.8616C18.7147 29.7472 18.7453 29.634 18.7804 29.5221C18.8002 29.4595 18.822 29.3983 18.8438 29.3366C18.8462 29.3302 18.8499 29.3183 18.8535 29.3068C18.8531 29.3085 18.8527 29.3098 18.8519 29.3119C18.822 29.4089 18.8705 29.2685 18.8793 29.2485C18.9794 29.0192 19.0993 28.7996 19.2365 28.5932C19.2523 28.5698 19.2688 28.5469 19.2842 28.5234C19.2858 28.5209 19.287 28.5192 19.2886 28.5166C19.3233 28.4724 19.3572 28.4273 19.3932 28.3839C19.4731 28.2864 19.5574 28.1928 19.6458 28.1039C19.7294 28.0197 19.8166 27.9401 19.9058 27.8627C19.9239 27.8469 19.9978 27.7976 19.9247 27.8465C19.8404 27.9027 19.9522 27.8265 19.9619 27.8193C20.0172 27.7776 20.0737 27.7371 20.131 27.6984C20.223 27.6363 20.3175 27.578 20.4139 27.5235C20.4684 27.4929 20.5237 27.464 20.5794 27.4359C20.6045 27.4236 20.6295 27.4116 20.6545 27.3997C20.6569 27.3984 20.6586 27.3976 20.661 27.3967C20.6614 27.3967 20.6618 27.3963 20.6622 27.3963C20.8886 27.3159 21.1078 27.2329 21.3431 27.1827C21.4057 27.1695 21.4682 27.1589 21.5312 27.1474C21.5373 27.1466 21.5421 27.1453 21.5465 27.144C21.5623 27.1432 21.5772 27.1427 21.5829 27.1423C21.7128 27.1291 21.8432 27.1232 21.9736 27.1223C22.0006 27.1223 22.0273 27.1223 22.0543 27.1223C22.0579 27.1223 22.062 27.1223 22.0656 27.1223C22.2343 27.1227 22.4022 27.1338 22.5698 27.1538C22.8919 27.207 23.2067 27.2968 23.5098 27.4231C23.7399 27.5308 23.9619 27.6567 24.1714 27.8044C24.2299 27.8456 24.2876 27.8886 24.3445 27.9329C24.3461 27.9341 24.347 27.9346 24.3482 27.9359C24.3687 27.9533 24.3889 27.9703 24.4091 27.9878C24.5141 28.0797 24.615 28.1762 24.7114 28.2779C24.8079 28.3796 24.8999 28.486 24.9867 28.5966C25.0033 28.6179 25.0198 28.6396 25.036 28.6609C25.0368 28.6622 25.0376 28.663 25.0384 28.6647C25.0779 28.7209 25.1159 28.7779 25.1526 28.8358C25.2959 29.0604 25.4182 29.2983 25.5219 29.5455C25.6414 29.865 25.727 30.1965 25.777 30.536C25.8081 30.8364 25.8069 31.1364 25.8069 31.4385C25.8069 31.8751 25.8069 32.3112 25.8069 32.7478C25.8069 33.4026 25.8069 34.0578 25.8069 34.7127C25.8069 35.4747 25.8069 36.2372 25.8069 36.9993C25.8069 37.766 25.8069 38.5332 25.8069 39.2999C25.8069 39.9667 25.8069 40.6334 25.8069 41.2997C25.8069 41.761 25.8069 42.2226 25.8069 42.6839C25.8069 42.9456 25.8004 43.2089 25.8178 43.4702C25.8977 44.6646 26.3478 45.7866 27.1118 46.6737C27.2374 46.8197 27.3722 46.9575 27.5143 47.0877C27.1813 47.0877 26.8479 47.0877 26.5145 47.0877C25.9167 47.0873 25.3177 47.0873 24.7183 47.0873Z" fill="#41b6e6"/>
<path d="M2.8127 31.196C2.88091 31.196 2.94913 31.196 3.01734 31.196C3.20301 31.196 3.38828 31.196 3.57395 31.196C3.84681 31.196 4.11966 31.196 4.39292 31.196C4.72754 31.196 5.06174 31.196 5.39636 31.196C5.76286 31.196 6.12935 31.196 6.49545 31.196C6.86518 31.196 7.23531 31.196 7.60504 31.196C7.94853 31.196 8.29202 31.196 8.63511 31.196C8.92653 31.196 9.21836 31.196 9.50979 31.196C9.71968 31.196 9.92916 31.196 10.1391 31.196C10.2383 31.196 10.3376 31.1969 10.4369 31.196C10.4414 31.196 10.4454 31.196 10.4499 31.196C10.6053 31.196 10.7683 31.125 10.8781 31.0092C10.9831 30.8986 11.0622 30.7169 11.0553 30.5578C11.0484 30.3927 10.9968 30.2216 10.8781 30.1063C10.7598 29.9919 10.6141 29.9195 10.4499 29.9195C10.3816 29.9195 10.3134 29.9195 10.2452 29.9195C10.0595 29.9195 9.87427 29.9195 9.68859 29.9195C9.41574 29.9195 9.14288 29.9195 8.86962 29.9195C8.53501 29.9195 8.2008 29.9195 7.86619 29.9195C7.49969 29.9195 7.13319 29.9195 6.76709 29.9195C6.39737 29.9195 6.02723 29.9195 5.65751 29.9195C5.31401 29.9195 4.97053 29.9195 4.62744 29.9195C4.33561 29.9195 4.04419 29.9195 3.75276 29.9195C3.54287 29.9195 3.33339 29.9195 3.1235 29.9195C3.0242 29.9195 2.92491 29.9187 2.82562 29.9195C2.82118 29.9195 2.81714 29.9195 2.8127 29.9195C2.6573 29.9195 2.49423 29.9906 2.38444 30.1063C2.2795 30.2169 2.20039 30.3986 2.20725 30.5578C2.21411 30.7229 2.26577 30.8939 2.38444 31.0092C2.50311 31.1237 2.64842 31.196 2.8127 31.196Z" fill="#41b6e6"/>
<path d="M15.7863 35.2054C15.6696 35.2054 15.5534 35.2054 15.4367 35.2054C15.1227 35.2054 14.8087 35.2054 14.4947 35.2054C14.0289 35.2054 13.5635 35.2054 13.0977 35.2054C12.5294 35.2054 11.9615 35.2054 11.3932 35.2054C10.7732 35.2054 10.1528 35.2054 9.5328 35.2054C8.90273 35.2054 8.27225 35.2054 7.64218 35.2054C7.05853 35.2054 6.47487 35.2054 5.89162 35.2054C5.39677 35.2054 4.90191 35.2054 4.40665 35.2054C4.05065 35.2054 3.69505 35.2054 3.33904 35.2054C3.17073 35.2054 3.00282 35.2041 2.8345 35.2054C2.82724 35.2054 2.81997 35.2054 2.8123 35.2054C2.6569 35.2054 2.49383 35.2764 2.38405 35.3922C2.2791 35.5028 2.19999 35.6845 2.20685 35.8436C2.21371 36.0087 2.26538 36.1798 2.38405 36.2951C2.50231 36.4095 2.64802 36.4819 2.8123 36.4819C2.92895 36.4819 3.0452 36.4819 3.16185 36.4819C3.47588 36.4819 3.7899 36.4819 4.10393 36.4819C4.56972 36.4819 5.03511 36.4819 5.5009 36.4819C6.06922 36.4819 6.63714 36.4819 7.20545 36.4819C7.82543 36.4819 8.44582 36.4819 9.0658 36.4819C9.69587 36.4819 10.3263 36.4819 10.9564 36.4819C11.5401 36.4819 12.1237 36.4819 12.707 36.4819C13.2018 36.4819 13.6967 36.4819 14.1919 36.4819C14.5479 36.4819 14.9035 36.4819 15.2596 36.4819C15.4279 36.4819 15.5958 36.4831 15.7641 36.4819C15.7714 36.4819 15.7786 36.4819 15.7863 36.4819C15.9417 36.4819 16.1048 36.4108 16.2146 36.2951C16.3195 36.1845 16.3986 36.0028 16.3917 35.8436C16.3849 35.6785 16.3332 35.5075 16.2146 35.3922C16.0959 35.2777 15.9502 35.2054 15.7863 35.2054Z" fill="#41b6e6"/>
<path d="M15.7863 40.4917C15.6696 40.4917 15.5534 40.4917 15.4367 40.4917C15.1227 40.4917 14.8087 40.4917 14.4947 40.4917C14.0289 40.4917 13.5635 40.4917 13.0977 40.4917C12.5294 40.4917 11.9615 40.4917 11.3932 40.4917C10.7732 40.4917 10.1528 40.4917 9.5328 40.4917C8.90273 40.4917 8.27225 40.4917 7.64218 40.4917C7.05853 40.4917 6.47487 40.4917 5.89162 40.4917C5.39677 40.4917 4.90191 40.4917 4.40665 40.4917C4.05065 40.4917 3.69505 40.4917 3.33904 40.4917C3.17073 40.4917 3.00282 40.4905 2.8345 40.4917C2.82724 40.4917 2.81997 40.4917 2.8123 40.4917C2.6569 40.4917 2.49383 40.5628 2.38405 40.6785C2.2791 40.7892 2.19999 40.9709 2.20685 41.13C2.21371 41.2951 2.26538 41.4661 2.38405 41.5814C2.50231 41.6959 2.64802 41.7682 2.8123 41.7682C2.92895 41.7682 3.0452 41.7682 3.16185 41.7682C3.47588 41.7682 3.7899 41.7682 4.10393 41.7682C4.56972 41.7682 5.03511 41.7682 5.5009 41.7682C6.06922 41.7682 6.63714 41.7682 7.20545 41.7682C7.82543 41.7682 8.44582 41.7682 9.0658 41.7682C9.69587 41.7682 10.3263 41.7682 10.9564 41.7682C11.5401 41.7682 12.1237 41.7682 12.707 41.7682C13.2018 41.7682 13.6967 41.7682 14.1919 41.7682C14.5479 41.7682 14.9035 41.7682 15.2596 41.7682C15.4279 41.7682 15.5958 41.7695 15.7641 41.7682C15.7714 41.7682 15.7786 41.7682 15.7863 41.7682C15.9417 41.7682 16.1048 41.6972 16.2146 41.5814C16.3195 41.4708 16.3986 41.2891 16.3917 41.13C16.3849 40.9649 16.3332 40.7939 16.2146 40.6785C16.0959 40.5641 15.9502 40.4917 15.7863 40.4917Z" fill="#41b6e6"/>
<path d="M15.7863 45.778C15.6696 45.778 15.5534 45.778 15.4367 45.778C15.1227 45.778 14.8087 45.778 14.4947 45.778C14.0289 45.778 13.5635 45.778 13.0977 45.778C12.5294 45.778 11.9615 45.778 11.3932 45.778C10.7732 45.778 10.1528 45.778 9.5328 45.778C8.90273 45.778 8.27225 45.778 7.64218 45.778C7.05853 45.778 6.47487 45.778 5.89162 45.778C5.39677 45.778 4.90191 45.778 4.40665 45.778C4.05065 45.778 3.69505 45.778 3.33904 45.778C3.17073 45.778 3.00282 45.7767 2.8345 45.778C2.82724 45.778 2.81997 45.778 2.8123 45.778C2.6569 45.778 2.49383 45.8491 2.38405 45.9648C2.2791 46.0754 2.19999 46.2571 2.20685 46.4162C2.21371 46.5813 2.26538 46.7524 2.38405 46.8677C2.50231 46.9822 2.64802 47.0545 2.8123 47.0545C2.92895 47.0545 3.0452 47.0545 3.16185 47.0545C3.47588 47.0545 3.7899 47.0545 4.10393 47.0545C4.56972 47.0545 5.03511 47.0545 5.5009 47.0545C6.06922 47.0545 6.63714 47.0545 7.20545 47.0545C7.82543 47.0545 8.44582 47.0545 9.0658 47.0545C9.69587 47.0545 10.3263 47.0545 10.9564 47.0545C11.5401 47.0545 12.1237 47.0545 12.707 47.0545C13.2018 47.0545 13.6967 47.0545 14.1919 47.0545C14.5479 47.0545 14.9035 47.0545 15.2596 47.0545C15.4279 47.0545 15.5958 47.0558 15.7641 47.0545C15.7714 47.0545 15.7786 47.0545 15.7863 47.0545C15.9417 47.0545 16.1048 46.9834 16.2146 46.8677C16.3195 46.7571 16.3986 46.5754 16.3917 46.4162C16.3849 46.2512 16.3332 46.0801 16.2146 45.9648C16.0959 45.8503 15.9502 45.778 15.7863 45.778Z" fill="#41b6e6"/>
<ellipse cx="26.6087" cy="7.5" rx="7.43478" ry="7.5" fill="#41b6e6"/>
<ellipse cx="26.6087" cy="7.10526" rx="7.04348" ry="7.10526" fill="#010F1C"/>
<path d="M48.0625 33.3125V47H40.4219V23H47.6875V27.4062H47.9531C48.4844 25.9375 49.3906 24.7865 50.6719 23.9531C51.9531 23.1094 53.4792 22.6875 55.25 22.6875C56.9375 22.6875 58.401 23.0677 59.6406 23.8281C60.8906 24.5781 61.8594 25.6302 62.5469 26.9844C63.2448 28.3281 63.5885 29.901 63.5781 31.7031V47H55.9375V33.2031C55.9479 31.8698 55.6094 30.8281 54.9219 30.0781C54.2448 29.3281 53.3021 28.9531 52.0937 28.9531C51.2917 28.9531 50.5833 29.1302 49.9687 29.4844C49.3646 29.8281 48.8958 30.3229 48.5625 30.9687C48.2396 31.6146 48.0729 32.3958 48.0625 33.3125ZM90.7305 23L82.4961 47H73.7461L65.5273 23H73.5742L77.9961 39.5312H78.2461L82.6836 23H90.7305ZM104.09 47.4531C101.559 47.4531 99.3867 46.9323 97.5742 45.8906C95.7721 44.849 94.3867 43.401 93.418 41.5469C92.4492 39.6823 91.9648 37.526 91.9648 35.0781C91.9648 32.6198 92.4492 30.4635 93.418 28.6094C94.3971 26.7448 95.7877 25.2917 97.5898 24.25C99.4023 23.2083 101.564 22.6875 104.074 22.6875C106.293 22.6875 108.225 23.0885 109.871 23.8906C111.527 24.6927 112.819 25.8281 113.746 27.2969C114.684 28.7552 115.178 30.4687 115.23 32.4375H108.09C107.944 31.2083 107.527 30.2448 106.84 29.5469C106.163 28.849 105.277 28.5 104.184 28.5C103.298 28.5 102.522 28.75 101.855 29.25C101.189 29.7396 100.668 30.4687 100.293 31.4375C99.9284 32.3958 99.7461 33.5833 99.7461 35C99.7461 36.4167 99.9284 37.6146 100.293 38.5937C100.668 39.5625 101.189 40.2969 101.855 40.7969C102.522 41.2865 103.298 41.5312 104.184 41.5312C104.892 41.5312 105.517 41.3802 106.059 41.0781C106.611 40.776 107.064 40.3333 107.418 39.75C107.772 39.1562 107.996 38.4375 108.09 37.5937H115.23C115.158 39.5729 114.663 41.3021 113.746 42.7812C112.84 44.2604 111.564 45.4115 109.918 46.2344C108.283 47.0469 106.34 47.4531 104.09 47.4531ZM130.359 47.4531C127.849 47.4531 125.682 46.9583 123.859 45.9688C122.047 44.9687 120.651 43.5469 119.672 41.7031C118.703 39.849 118.219 37.6458 118.219 35.0937C118.219 32.6146 118.708 30.4479 119.687 28.5937C120.667 26.7292 122.047 25.2812 123.828 24.25C125.609 23.2083 127.708 22.6875 130.125 22.6875C131.833 22.6875 133.396 22.9531 134.812 23.4844C136.229 24.0156 137.453 24.8021 138.484 25.8437C139.516 26.8854 140.318 28.1719 140.891 29.7031C141.464 31.224 141.75 32.9687 141.75 34.9375V36.8437H120.891V32.4062H134.641C134.63 31.5937 134.437 30.8698 134.062 30.2344C133.687 29.599 133.172 29.1042 132.516 28.75C131.87 28.3854 131.125 28.2031 130.281 28.2031C129.427 28.2031 128.661 28.3958 127.984 28.7812C127.307 29.1563 126.771 29.6719 126.375 30.3281C125.979 30.974 125.771 31.7083 125.75 32.5312V37.0469C125.75 38.026 125.943 38.8854 126.328 39.625C126.714 40.3542 127.26 40.9219 127.969 41.3281C128.677 41.7344 129.521 41.9375 130.5 41.9375C131.177 41.9375 131.792 41.8437 132.344 41.6562C132.896 41.4688 133.37 41.1927 133.766 40.8281C134.161 40.4635 134.458 40.0156 134.656 39.4844L141.672 39.6875C141.38 41.2604 140.74 42.6302 139.75 43.7969C138.771 44.9531 137.484 45.8542 135.891 46.5C134.297 47.1354 132.453 47.4531 130.359 47.4531Z" fill="#010F1C"/>
</svg>
